<?xml version="1.0" encoding="UTF-8" standalone="no"?><!DOCTYPE svg PUBLIC "-//W3C//DTD SVG 1.1//EN" "http://www.w3.org/Graphics/SVG/1.1/DTD/svg11.dtd"><!-- Generated by graphviz version 2.40.1 (20161225.0304)
 --><!-- Title: classes Pages: 1 --><svg xmlns="http://www.w3.org/2000/svg" xmlns:xlink="http://www.w3.org/1999/xlink" width="2052pt" height="738pt" viewBox="0.00 0.00 2052.25 737.80">
<g id="graph0" class="graph" transform="scale(1 1) rotate(0) translate(4 733.8)">
<title>classes</title>
<polygon fill="#ffffff" stroke="transparent" points="-4,4 -4,-733.8 2048.2476,-733.8 2048.2476,4 -4,4"/>
<!-- FaustProcessing.HealthStateModel.AdapterMisurazioneSalute.AdapterMisurazione -->
<g id="node1" class="node">
<title>FaustProcessing.HealthStateModel.AdapterMisurazioneSalute.AdapterMisurazione</title>
<polygon fill="none" stroke="#000000" points="0,-279.9 0,-354.3 131.0618,-354.3 131.0618,-279.9 0,-279.9"/>
<text text-anchor="start" x="8" y="-337.7" font-family="Times,serif" font-size="14.00" fill="#000000">AdapterMisurazione</text>
<polyline fill="none" stroke="#000000" points="0,-329.5 131.0618,-329.5 "/>
<polyline fill="none" stroke="#000000" points="0,-304.7 131.0618,-304.7 "/>
<text text-anchor="start" x="40.2574" y="-288.1" font-family="Times,serif" font-size="14.00" fill="#000000">to_json()</text>
</g>
<!-- FaustProcessing.HealthStateModel.Writers.Writable.Writable -->
<g id="node17" class="node">
<title>FaustProcessing.HealthStateModel.Writers.Writable.Writable</title>
<polygon fill="none" stroke="#000000" points="21.5642,-500.5 21.5642,-574.9 109.4976,-574.9 109.4976,-500.5 21.5642,-500.5"/>
<text text-anchor="start" x="41.0428" y="-558.3" font-family="Times,serif" font-size="14.00" fill="#000000">Writable</text>
<polyline fill="none" stroke="#000000" points="21.5642,-550.1 109.4976,-550.1 "/>
<polyline fill="none" stroke="#000000" points="21.5642,-525.3 109.4976,-525.3 "/>
<text text-anchor="start" x="29.5642" y="-509.7" font-family="Times,serif" font-style="italic" font-size="14.00" fill="#000000">to_json</text>
<text text-anchor="start" x="70.79" y="-509.7" font-family="Times,serif" font-size="14.00" fill="#000000">(): str</text>
</g>
<!-- FaustProcessing.HealthStateModel.AdapterMisurazioneSalute.AdapterMisurazione&#45;&gt;FaustProcessing.HealthStateModel.Writers.Writable.Writable -->
<g id="edge1" class="edge">
<title>FaustProcessing.HealthStateModel.AdapterMisurazioneSalute.AdapterMisurazione-&gt;FaustProcessing.HealthStateModel.Writers.Writable.Writable</title>
<path fill="none" stroke="#000000" d="M65.5309,-354.5218C65.5309,-391.9521 65.5309,-449.6492 65.5309,-490.2686"/>
<polygon fill="none" stroke="#000000" points="62.031,-490.4634 65.5309,-500.4634 69.031,-490.4635 62.031,-490.4634"/>
</g>
<!-- FaustProcessing.HealthStateModel.Writers.CompositeWriter.CompositeWriter -->
<g id="node2" class="node">
<title>FaustProcessing.HealthStateModel.Writers.CompositeWriter.CompositeWriter</title>
<polygon fill="none" stroke="#000000" points="127.8755,-458.5 127.8755,-616.9 417.1863,-616.9 417.1863,-458.5 127.8755,-458.5"/>
<text text-anchor="start" x="223.9313" y="-600.3" font-family="Times,serif" font-size="14.00" fill="#000000">CompositeWriter</text>
<polyline fill="none" stroke="#000000" points="127.8755,-592.1 417.1863,-592.1 "/>
<polyline fill="none" stroke="#000000" points="127.8755,-567.3 417.1863,-567.3 "/>
<text text-anchor="start" x="135.8755" y="-550.7" font-family="Times,serif" font-size="14.00" fill="#000000">add_kafkaConfluent_writer(topic: str, host, port)</text>
<text text-anchor="start" x="135.8755" y="-533.9" font-family="Times,serif" font-size="14.00" fill="#000000">add_list_writer()</text>
<text text-anchor="start" x="135.8755" y="-517.1" font-family="Times,serif" font-size="14.00" fill="#000000">add_stdOut_writer()</text>
<text text-anchor="start" x="135.8755" y="-500.3" font-family="Times,serif" font-size="14.00" fill="#000000">add_writer(writer)</text>
<text text-anchor="start" x="135.8755" y="-483.5" font-family="Times,serif" font-size="14.00" fill="#000000">remove_writer(writer)</text>
<text text-anchor="start" x="135.8755" y="-466.7" font-family="Times,serif" font-size="14.00" fill="#000000">write(to_write)</text>
</g>
<!-- FaustProcessing.HealthStateModel.Writers.Writer.Writer -->
<g id="node18" class="node">
<title>FaustProcessing.HealthStateModel.Writers.Writer.Writer</title>
<polygon fill="none" stroke="#000000" points="435.1227,-654.9 435.1227,-729.3 629.9391,-729.3 629.9391,-654.9 435.1227,-654.9"/>
<text text-anchor="start" x="514.2651" y="-712.7" font-family="Times,serif" font-size="14.00" fill="#000000">Writer</text>
<polyline fill="none" stroke="#000000" points="435.1227,-704.5 629.9391,-704.5 "/>
<polyline fill="none" stroke="#000000" points="435.1227,-679.7 629.9391,-679.7 "/>
<text text-anchor="start" x="443.1227" y="-664.1" font-family="Times,serif" font-style="italic" font-size="14.00" fill="#000000">write</text>
<text text-anchor="start" x="471.8857" y="-664.1" font-family="Times,serif" font-size="14.00" fill="#000000">(to_write: Writable): None</text>
</g>
<!-- FaustProcessing.HealthStateModel.Writers.CompositeWriter.CompositeWriter&#45;&gt;FaustProcessing.HealthStateModel.Writers.Writer.Writer -->
<g id="edge4" class="edge">
<title>FaustProcessing.HealthStateModel.Writers.CompositeWriter.CompositeWriter-&gt;FaustProcessing.HealthStateModel.Writers.Writer.Writer</title>
<path fill="none" stroke="#000000" d="M405.9583,-616.9353C424.9637,-628.2216 443.8713,-639.4498 461.0549,-649.6543"/>
<polygon fill="none" stroke="#000000" points="459.4897,-652.7954 469.875,-654.8921 463.064,-646.7766 459.4897,-652.7954"/>
</g>
<!-- FaustProcessing.HealthStateModel.Coordinate.Coordinate -->
<g id="node3" class="node">
<title>FaustProcessing.HealthStateModel.Coordinate.Coordinate</title>
<polygon fill="none" stroke="#000000" points="680.3745,-42.5 680.3745,-133.7 782.6873,-133.7 782.6873,-42.5 680.3745,-42.5"/>
<text text-anchor="start" x="700.4271" y="-117.1" font-family="Times,serif" font-size="14.00" fill="#000000">Coordinate</text>
<polyline fill="none" stroke="#000000" points="680.3745,-108.9 782.6873,-108.9 "/>
<polyline fill="none" stroke="#000000" points="680.3745,-84.1 782.6873,-84.1 "/>
<text text-anchor="start" x="688.3745" y="-67.5" font-family="Times,serif" font-size="14.00" fill="#000000">get_latitude()</text>
<text text-anchor="start" x="688.3745" y="-50.7" font-family="Times,serif" font-size="14.00" fill="#000000">get_longitude()</text>
</g>
<!-- FaustProcessing.HealthStateModel.Misurazione.Misurazione -->
<g id="node13" class="node">
<title>FaustProcessing.HealthStateModel.Misurazione.Misurazione</title>
<polygon fill="none" stroke="#000000" points="674.9446,-229.5 674.9446,-404.7 788.1172,-404.7 788.1172,-229.5 674.9446,-229.5"/>
<text text-anchor="start" x="696.5435" y="-388.1" font-family="Times,serif" font-size="14.00" fill="#000000">Misurazione</text>
<polyline fill="none" stroke="#000000" points="674.9446,-379.9 788.1172,-379.9 "/>
<polyline fill="none" stroke="#000000" points="674.9446,-355.1 788.1172,-355.1 "/>
<text text-anchor="start" x="682.9446" y="-338.5" font-family="Times,serif" font-size="14.00" fill="#000000">get_ID_sensore()</text>
<text text-anchor="start" x="682.9446" y="-321.7" font-family="Times,serif" font-size="14.00" fill="#000000">get_cella()</text>
<text text-anchor="start" x="682.9446" y="-304.9" font-family="Times,serif" font-size="14.00" fill="#000000">get_latitude()</text>
<text text-anchor="start" x="682.9446" y="-288.1" font-family="Times,serif" font-size="14.00" fill="#000000">get_longitude()</text>
<text text-anchor="start" x="682.9446" y="-271.3" font-family="Times,serif" font-size="14.00" fill="#000000">get_timestamp()</text>
<text text-anchor="start" x="682.9446" y="-254.5" font-family="Times,serif" font-size="14.00" fill="#000000">get_type()</text>
<text text-anchor="start" x="682.9446" y="-237.7" font-family="Times,serif" font-size="14.00" fill="#000000">get_value()</text>
</g>
<!-- FaustProcessing.HealthStateModel.Coordinate.Coordinate&#45;&gt;FaustProcessing.HealthStateModel.Misurazione.Misurazione -->
<g id="edge11" class="edge">
<title>FaustProcessing.HealthStateModel.Coordinate.Coordinate-&gt;FaustProcessing.HealthStateModel.Misurazione.Misurazione</title>
<path fill="none" stroke="#000000" d="M731.5309,-133.8912C731.5309,-157.7607 731.5309,-187.9519 731.5309,-216.9037"/>
<polygon fill="none" stroke="#000000" points="731.531,-217.2137 735.5309,-223.2137 731.5309,-229.2137 727.5309,-223.2137 731.531,-217.2137"/>
<text text-anchor="middle" x="770.796" y="-198.4" font-family="Times,serif" font-size="14.00" fill="#00ff00">__coordinates</text>
</g>
<!-- FaustProcessing.HealthStateModel.HealthCalculator.HealthCalculator -->
<g id="node4" class="node">
<title>FaustProcessing.HealthStateModel.HealthCalculator.HealthCalculator</title>
<polygon fill="none" stroke="#000000" points="1115.6521,-271.5 1115.6521,-362.7 1583.4097,-362.7 1583.4097,-271.5 1115.6521,-271.5"/>
<text text-anchor="start" x="1301.716" y="-346.1" font-family="Times,serif" font-size="14.00" fill="#000000">HealthCalculator</text>
<polyline fill="none" stroke="#000000" points="1115.6521,-337.9 1583.4097,-337.9 "/>
<polyline fill="none" stroke="#000000" points="1115.6521,-313.1 1583.4097,-313.1 "/>
<text text-anchor="start" x="1123.6521" y="-296.5" font-family="Times,serif" font-size="14.00" fill="#000000">add_misurazione(timestamp, value, type_, latitude, longitude, ID_sensore, cella)</text>
<text text-anchor="start" x="1123.6521" y="-279.7" font-family="Times,serif" font-size="14.00" fill="#000000">generate_new_health_score()</text>
</g>
<!-- FaustProcessing.HealthStateModel.HealthCalculatorThread.HealthCalculatorThread -->
<g id="node5" class="node">
<title>FaustProcessing.HealthStateModel.HealthCalculatorThread.HealthCalculatorThread</title>
<polygon fill="none" stroke="#000000" points="1273.8948,-492.1 1273.8948,-583.3 1425.167,-583.3 1425.167,-492.1 1273.8948,-492.1"/>
<text text-anchor="start" x="1281.8948" y="-566.7" font-family="Times,serif" font-size="14.00" fill="#000000">HealthCalculatorThread</text>
<polyline fill="none" stroke="#000000" points="1273.8948,-558.5 1425.167,-558.5 "/>
<polyline fill="none" stroke="#000000" points="1273.8948,-533.7 1425.167,-533.7 "/>
<text text-anchor="start" x="1314.3468" y="-517.1" font-family="Times,serif" font-size="14.00" fill="#000000">run(): None</text>
<text text-anchor="start" x="1314.3468" y="-500.3" font-family="Times,serif" font-size="14.00" fill="#000000">stop(): None</text>
</g>
<!-- FaustProcessing.HealthStateModel.HealthCalculator.HealthCalculator&#45;&gt;FaustProcessing.HealthStateModel.HealthCalculatorThread.HealthCalculatorThread -->
<g id="edge12" class="edge">
<title>FaustProcessing.HealthStateModel.HealthCalculator.HealthCalculator-&gt;FaustProcessing.HealthStateModel.HealthCalculatorThread.HealthCalculatorThread</title>
<path fill="none" stroke="#000000" d="M1349.5309,-362.8085C1349.5309,-396.6758 1349.5309,-443.0873 1349.5309,-479.5891"/>
<polygon fill="none" stroke="#000000" points="1349.531,-480.0501 1353.5309,-486.0501 1349.5309,-492.0501 1345.5309,-486.0501 1349.531,-480.0501"/>
<text text-anchor="middle" x="1402.7925" y="-427.4" font-family="Times,serif" font-size="14.00" fill="#00ff00">__healthCalculator</text>
</g>
<!-- FaustProcessing.HealthStateModel.Incrementers.HumidityIncrementer.HumidityIncrementer -->
<g id="node6" class="node">
<title>FaustProcessing.HealthStateModel.Incrementers.HumidityIncrementer.HumidityIncrementer</title>
<polygon fill="none" stroke="#000000" points="1286.5508,-50.9 1286.5508,-125.3 1594.511,-125.3 1594.511,-50.9 1286.5508,-50.9"/>
<text text-anchor="start" x="1379.8857" y="-108.7" font-family="Times,serif" font-size="14.00" fill="#000000">HumidityIncrementer</text>
<polyline fill="none" stroke="#000000" points="1286.5508,-100.5 1594.511,-100.5 "/>
<polyline fill="none" stroke="#000000" points="1286.5508,-75.7 1594.511,-75.7 "/>
<text text-anchor="start" x="1294.5508" y="-59.1" font-family="Times,serif" font-size="14.00" fill="#000000">get_incrementation(misurazioni: List[Misurazione])</text>
</g>
<!-- FaustProcessing.HealthStateModel.Incrementers.HumidityIncrementer.HumidityIncrementer&#45;&gt;FaustProcessing.HealthStateModel.HealthCalculator.HealthCalculator -->
<g id="edge8" class="edge">
<title>FaustProcessing.HealthStateModel.Incrementers.HumidityIncrementer.HumidityIncrementer-&gt;FaustProcessing.HealthStateModel.HealthCalculator.HealthCalculator</title>
<path fill="none" stroke="#000000" d="M1425.7076,-125.4025C1411.2218,-161.856 1388.9708,-217.8502 1372.2508,-259.9258"/>
<polygon fill="#000000" stroke="#000000" points="1372.2332,-259.9702 1373.7347,-267.0233 1367.8016,-271.122 1366.3001,-264.069 1372.2332,-259.9702"/>
<text text-anchor="middle" x="1425.9138" y="-198.4" font-family="Times,serif" font-size="14.00" fill="#00ff00">__umdInc</text>
</g>
<!-- FaustProcessing.HealthStateModel.Incrementers.Incrementer.Incrementer -->
<g id="node7" class="node">
<title>FaustProcessing.HealthStateModel.Incrementers.Incrementer.Incrementer</title>
<polygon fill="none" stroke="#000000" points="1601.4649,-279.9 1601.4649,-354.3 1931.5969,-354.3 1931.5969,-279.9 1601.4649,-279.9"/>
<text text-anchor="start" x="1732.7202" y="-337.7" font-family="Times,serif" font-size="14.00" fill="#000000">Incrementer</text>
<polyline fill="none" stroke="#000000" points="1601.4649,-329.5 1931.5969,-329.5 "/>
<polyline fill="none" stroke="#000000" points="1601.4649,-304.7 1931.5969,-304.7 "/>
<text text-anchor="start" x="1609.4649" y="-289.1" font-family="Times,serif" font-style="italic" font-size="14.00" fill="#000000">get_incrementation</text>
<text text-anchor="start" x="1717.5421" y="-289.1" font-family="Times,serif" font-size="14.00" fill="#000000">(misurazioni: List[Misurazione]): int</text>
</g>
<!-- FaustProcessing.HealthStateModel.Incrementers.HumidityIncrementer.HumidityIncrementer&#45;&gt;FaustProcessing.HealthStateModel.Incrementers.Incrementer.Incrementer -->
<g id="edge2" class="edge">
<title>FaustProcessing.HealthStateModel.Incrementers.HumidityIncrementer.HumidityIncrementer-&gt;FaustProcessing.HealthStateModel.Incrementers.Incrementer.Incrementer</title>
<path fill="none" stroke="#000000" d="M1472.424,-125.528C1495.8723,-151.5778 1529.4645,-185.989 1563.5309,-211 1574.5493,-219.0896 1632.2902,-249.0955 1683.3869,-275.1423"/>
<polygon fill="none" stroke="#000000" points="1682.0078,-278.3675 1692.5073,-279.7855 1685.1836,-272.1294 1682.0078,-278.3675"/>
</g>
<!-- FaustProcessing.HealthStateModel.Writers.kafkaAdapter.KafkaConfluentAdapter.KafkaConfluentAdapter -->
<g id="node8" class="node">
<title>FaustProcessing.HealthStateModel.Writers.kafkaAdapter.KafkaConfluentAdapter.KafkaConfluentAdapter</title>
<polygon fill="none" stroke="#000000" points="436.2896,-50.9 436.2896,-125.3 628.7722,-125.3 628.7722,-50.9 436.2896,-50.9"/>
<text text-anchor="start" x="464.8927" y="-108.7" font-family="Times,serif" font-size="14.00" fill="#000000">KafkaConfluentAdapter</text>
<polyline fill="none" stroke="#000000" points="436.2896,-100.5 628.7722,-100.5 "/>
<polyline fill="none" stroke="#000000" points="436.2896,-75.7 628.7722,-75.7 "/>
<text text-anchor="start" x="444.2896" y="-59.1" font-family="Times,serif" font-size="14.00" fill="#000000">write_to_kafka(data: str): None</text>
</g>
<!-- FaustProcessing.HealthStateModel.Writers.kafkaAdapter.KafkaTarget.KafkaTarget -->
<g id="node9" class="node">
<title>FaustProcessing.HealthStateModel.Writers.kafkaAdapter.KafkaTarget.KafkaTarget</title>
<polygon fill="none" stroke="#000000" points="408.0985,-279.9 408.0985,-354.3 656.9633,-354.3 656.9633,-279.9 408.0985,-279.9"/>
<text text-anchor="start" x="497.1662" y="-337.7" font-family="Times,serif" font-size="14.00" fill="#000000">KafkaTarget</text>
<polyline fill="none" stroke="#000000" points="408.0985,-329.5 656.9633,-329.5 "/>
<polyline fill="none" stroke="#000000" points="408.0985,-304.7 656.9633,-304.7 "/>
<text text-anchor="start" x="416.0985" y="-289.1" font-family="Times,serif" font-style="italic" font-size="14.00" fill="#000000">write_to_kafka</text>
<text text-anchor="start" x="500.8419" y="-289.1" font-family="Times,serif" font-size="14.00" fill="#000000">(topic: str, data: str): None</text>
</g>
<!-- FaustProcessing.HealthStateModel.Writers.kafkaAdapter.KafkaConfluentAdapter.KafkaConfluentAdapter&#45;&gt;FaustProcessing.HealthStateModel.Writers.kafkaAdapter.KafkaTarget.KafkaTarget -->
<g id="edge7" class="edge">
<title>FaustProcessing.HealthStateModel.Writers.kafkaAdapter.KafkaConfluentAdapter.KafkaConfluentAdapter-&gt;FaustProcessing.HealthStateModel.Writers.kafkaAdapter.KafkaTarget.KafkaTarget</title>
<path fill="none" stroke="#000000" d="M532.5309,-125.4025C532.5309,-164.7427 532.5309,-226.8411 532.5309,-269.6432"/>
<polygon fill="none" stroke="#000000" points="529.031,-269.8135 532.5309,-279.8135 536.031,-269.8135 529.031,-269.8135"/>
</g>
<!-- FaustProcessing.HealthStateModel.Writers.KafkaWriter.KafkaWriter -->
<g id="node10" class="node">
<title>FaustProcessing.HealthStateModel.Writers.KafkaWriter.KafkaWriter</title>
<polygon fill="none" stroke="#000000" points="435.1227,-500.5 435.1227,-574.9 629.9391,-574.9 629.9391,-500.5 435.1227,-500.5"/>
<text text-anchor="start" x="497.1669" y="-558.3" font-family="Times,serif" font-size="14.00" fill="#000000">KafkaWriter</text>
<polyline fill="none" stroke="#000000" points="435.1227,-550.1 629.9391,-550.1 "/>
<polyline fill="none" stroke="#000000" points="435.1227,-525.3 629.9391,-525.3 "/>
<text text-anchor="start" x="443.1227" y="-508.7" font-family="Times,serif" font-size="14.00" fill="#000000">write(to_write: Writable): None</text>
</g>
<!-- FaustProcessing.HealthStateModel.Writers.kafkaAdapter.KafkaTarget.KafkaTarget&#45;&gt;FaustProcessing.HealthStateModel.Writers.KafkaWriter.KafkaWriter -->
<g id="edge14" class="edge">
<title>FaustProcessing.HealthStateModel.Writers.kafkaAdapter.KafkaTarget.KafkaTarget-&gt;FaustProcessing.HealthStateModel.Writers.KafkaWriter.KafkaWriter</title>
<path fill="none" stroke="#000000" d="M532.5309,-354.5218C532.5309,-391.3958 532.5309,-447.9387 532.5309,-488.4464"/>
<polygon fill="none" stroke="#000000" points="532.531,-488.4634 536.5309,-494.4634 532.5309,-500.4634 528.5309,-494.4634 532.531,-488.4634"/>
<text text-anchor="middle" x="574.5113" y="-427.4" font-family="Times,serif" font-size="14.00" fill="#00ff00">__kafka_target</text>
</g>
<!-- FaustProcessing.HealthStateModel.Writers.KafkaWriter.KafkaWriter&#45;&gt;FaustProcessing.HealthStateModel.Writers.Writer.Writer -->
<g id="edge5" class="edge">
<title>FaustProcessing.HealthStateModel.Writers.KafkaWriter.KafkaWriter-&gt;FaustProcessing.HealthStateModel.Writers.Writer.Writer</title>
<path fill="none" stroke="#000000" d="M532.5309,-575.0759C532.5309,-595.9555 532.5309,-622.1871 532.5309,-644.5203"/>
<polygon fill="none" stroke="#000000" points="529.031,-644.8009 532.5309,-654.801 536.031,-644.801 529.031,-644.8009"/>
</g>
<!-- FaustProcessing.HealthStateModel.ListaMisurazioni.ListaMisurazioni -->
<g id="node11" class="node">
<title>FaustProcessing.HealthStateModel.ListaMisurazioni.ListaMisurazioni</title>
<polygon fill="none" stroke="#000000" points="800.6521,-25.7 800.6521,-150.5 1268.4097,-150.5 1268.4097,-25.7 800.6521,-25.7"/>
<text text-anchor="start" x="986.709" y="-133.9" font-family="Times,serif" font-size="14.00" fill="#000000">ListaMisurazioni</text>
<polyline fill="none" stroke="#000000" points="800.6521,-125.7 1268.4097,-125.7 "/>
<polyline fill="none" stroke="#000000" points="800.6521,-100.9 1268.4097,-100.9 "/>
<text text-anchor="start" x="808.6521" y="-84.3" font-family="Times,serif" font-size="14.00" fill="#000000">add_misurazione(timestamp, value, type_, latitude, longitude, ID_sensore, cella)</text>
<text text-anchor="start" x="808.6521" y="-67.5" font-family="Times,serif" font-size="14.00" fill="#000000">clear_list()</text>
<text text-anchor="start" x="808.6521" y="-50.7" font-family="Times,serif" font-size="14.00" fill="#000000">get_list_by_cella_and_type(cella: str, tipo_dato: str)</text>
<text text-anchor="start" x="808.6521" y="-33.9" font-family="Times,serif" font-size="14.00" fill="#000000">get_unique_celle()</text>
</g>
<!-- FaustProcessing.HealthStateModel.ListaMisurazioni.ListaMisurazioni&#45;&gt;FaustProcessing.HealthStateModel.HealthCalculator.HealthCalculator -->
<g id="edge10" class="edge">
<title>FaustProcessing.HealthStateModel.ListaMisurazioni.ListaMisurazioni-&gt;FaustProcessing.HealthStateModel.HealthCalculator.HealthCalculator</title>
<path fill="none" stroke="#000000" d="M1120.606,-150.6753C1169.5842,-186.2816 1230.2536,-230.3873 1276.8278,-264.246"/>
<polygon fill="#000000" stroke="#000000" points="1276.8368,-264.2525 1284.042,-264.5453 1286.543,-271.3088 1279.3378,-271.0161 1276.8368,-264.2525"/>
<text text-anchor="middle" x="1253.0218" y="-198.4" font-family="Times,serif" font-size="14.00" fill="#00ff00">__listaMisurazioni</text>
</g>
<!-- FaustProcessing.processing.Measurement -->
<g id="node12" class="node">
<title>FaustProcessing.processing.Measurement</title>
<polygon fill="none" stroke="#000000" points="1938.8142,-.5 1938.8142,-175.7 2044.2476,-175.7 2044.2476,-.5 1938.8142,-.5"/>
<text text-anchor="start" x="1953.4362" y="-159.1" font-family="Times,serif" font-size="14.00" fill="#000000">Measurement</text>
<polyline fill="none" stroke="#000000" points="1938.8142,-150.9 2044.2476,-150.9 "/>
<text text-anchor="start" x="1946.8142" y="-134.3" font-family="Times,serif" font-size="14.00" fill="#000000">ID_sensore : str</text>
<text text-anchor="start" x="1946.8142" y="-117.5" font-family="Times,serif" font-size="14.00" fill="#000000">cella : str</text>
<text text-anchor="start" x="1946.8142" y="-100.7" font-family="Times,serif" font-size="14.00" fill="#000000">latitude : float</text>
<text text-anchor="start" x="1946.8142" y="-83.9" font-family="Times,serif" font-size="14.00" fill="#000000">longitude : float</text>
<text text-anchor="start" x="1946.8142" y="-67.1" font-family="Times,serif" font-size="14.00" fill="#000000">timestamp : str</text>
<text text-anchor="start" x="1946.8142" y="-50.3" font-family="Times,serif" font-size="14.00" fill="#000000">type : str</text>
<text text-anchor="start" x="1946.8142" y="-33.5" font-family="Times,serif" font-size="14.00" fill="#000000">value : float</text>
<polyline fill="none" stroke="#000000" points="1938.8142,-25.3 2044.2476,-25.3 "/>
<text text-anchor="start" x="1989.7809" y="-8.7" font-family="Times,serif" font-size="14.00" fill="#000000"> </text>
</g>
<!-- FaustProcessing.HealthStateModel.MisurazioneSalute.MisurazioneSalute -->
<g id="node14" class="node">
<title>FaustProcessing.HealthStateModel.MisurazioneSalute.MisurazioneSalute</title>
<polygon fill="none" stroke="#000000" points="5.047,-25.7 5.047,-150.5 126.0148,-150.5 126.0148,-25.7 5.047,-25.7"/>
<text text-anchor="start" x="13.047" y="-133.9" font-family="Times,serif" font-size="14.00" fill="#000000">MisurazioneSalute</text>
<polyline fill="none" stroke="#000000" points="5.047,-125.7 126.0148,-125.7 "/>
<polyline fill="none" stroke="#000000" points="5.047,-100.9 126.0148,-100.9 "/>
<text text-anchor="start" x="19.6543" y="-84.3" font-family="Times,serif" font-size="14.00" fill="#000000">get_cella()</text>
<text text-anchor="start" x="19.6543" y="-67.5" font-family="Times,serif" font-size="14.00" fill="#000000">get_timestamp()</text>
<text text-anchor="start" x="19.6543" y="-50.7" font-family="Times,serif" font-size="14.00" fill="#000000">get_type()</text>
<text text-anchor="start" x="19.6543" y="-33.9" font-family="Times,serif" font-size="14.00" fill="#000000">get_value()</text>
</g>
<!-- FaustProcessing.HealthStateModel.MisurazioneSalute.MisurazioneSalute&#45;&gt;FaustProcessing.HealthStateModel.AdapterMisurazioneSalute.AdapterMisurazione -->
<g id="edge13" class="edge">
<title>FaustProcessing.HealthStateModel.MisurazioneSalute.MisurazioneSalute-&gt;FaustProcessing.HealthStateModel.AdapterMisurazioneSalute.AdapterMisurazione</title>
<path fill="none" stroke="#000000" d="M65.5309,-150.6753C65.5309,-187.4734 65.5309,-233.3495 65.5309,-267.6109"/>
<polygon fill="none" stroke="#000000" points="65.531,-267.6697 69.5309,-273.6697 65.5309,-279.6697 61.5309,-273.6697 65.531,-267.6697"/>
<text text-anchor="middle" x="106.7413" y="-198.4" font-family="Times,serif" font-size="14.00" fill="#00ff00">__misurazione</text>
</g>
<!-- FaustProcessing.HealthStateModel.Writers.StdoutWriter.StdoutWriter -->
<g id="node15" class="node">
<title>FaustProcessing.HealthStateModel.Writers.StdoutWriter.StdoutWriter</title>
<polygon fill="none" stroke="#000000" points="648.1227,-500.5 648.1227,-574.9 842.9391,-574.9 842.9391,-500.5 648.1227,-500.5"/>
<text text-anchor="start" x="708.9832" y="-558.3" font-family="Times,serif" font-size="14.00" fill="#000000">StdoutWriter</text>
<polyline fill="none" stroke="#000000" points="648.1227,-550.1 842.9391,-550.1 "/>
<polyline fill="none" stroke="#000000" points="648.1227,-525.3 842.9391,-525.3 "/>
<text text-anchor="start" x="656.1227" y="-508.7" font-family="Times,serif" font-size="14.00" fill="#000000">write(to_write: Writable): None</text>
</g>
<!-- FaustProcessing.HealthStateModel.Writers.StdoutWriter.StdoutWriter&#45;&gt;FaustProcessing.HealthStateModel.Writers.Writer.Writer -->
<g id="edge6" class="edge">
<title>FaustProcessing.HealthStateModel.Writers.StdoutWriter.StdoutWriter-&gt;FaustProcessing.HealthStateModel.Writers.Writer.Writer</title>
<path fill="none" stroke="#000000" d="M695.9204,-575.0756C677.9221,-588.5231 657.3815,-603.7409 638.5309,-617.4 624.3581,-627.6696 609.0178,-638.5908 594.5261,-648.8208"/>
<polygon fill="none" stroke="#000000" points="592.2649,-646.1325 586.1069,-654.754 596.2973,-651.8544 592.2649,-646.1325"/>
</g>
<!-- FaustProcessing.HealthStateModel.Incrementers.TemperatureIncrementer.TemperatureIncrementer -->
<g id="node16" class="node">
<title>FaustProcessing.HealthStateModel.Incrementers.TemperatureIncrementer.TemperatureIncrementer</title>
<polygon fill="none" stroke="#000000" points="1612.5508,-50.9 1612.5508,-125.3 1920.511,-125.3 1920.511,-50.9 1612.5508,-50.9"/>
<text text-anchor="start" x="1696.9635" y="-108.7" font-family="Times,serif" font-size="14.00" fill="#000000">TemperatureIncrementer</text>
<polyline fill="none" stroke="#000000" points="1612.5508,-100.5 1920.511,-100.5 "/>
<polyline fill="none" stroke="#000000" points="1612.5508,-75.7 1920.511,-75.7 "/>
<text text-anchor="start" x="1620.5508" y="-59.1" font-family="Times,serif" font-size="14.00" fill="#000000">get_incrementation(misurazioni: List[Misurazione])</text>
</g>
<!-- FaustProcessing.HealthStateModel.Incrementers.TemperatureIncrementer.TemperatureIncrementer&#45;&gt;FaustProcessing.HealthStateModel.HealthCalculator.HealthCalculator -->
<g id="edge9" class="edge">
<title>FaustProcessing.HealthStateModel.Incrementers.TemperatureIncrementer.TemperatureIncrementer-&gt;FaustProcessing.HealthStateModel.HealthCalculator.HealthCalculator</title>
<path fill="none" stroke="#000000" d="M1698.6046,-125.4025C1629.2832,-163.471 1521.1562,-222.8501 1443.614,-265.4333"/>
<polygon fill="#000000" stroke="#000000" points="1443.4009,-265.5502 1440.0672,-271.9445 1432.8826,-271.3265 1436.2163,-264.9323 1443.4009,-265.5502"/>
<text text-anchor="middle" x="1597.3591" y="-198.4" font-family="Times,serif" font-size="14.00" fill="#00ff00">__tmpInc</text>
</g>
<!-- FaustProcessing.HealthStateModel.Incrementers.TemperatureIncrementer.TemperatureIncrementer&#45;&gt;FaustProcessing.HealthStateModel.Incrementers.Incrementer.Incrementer -->
<g id="edge3" class="edge">
<title>FaustProcessing.HealthStateModel.Incrementers.TemperatureIncrementer.TemperatureIncrementer-&gt;FaustProcessing.HealthStateModel.Incrementers.Incrementer.Incrementer</title>
<path fill="none" stroke="#000000" d="M1766.5309,-125.4025C1766.5309,-164.7427 1766.5309,-226.8411 1766.5309,-269.6432"/>
<polygon fill="none" stroke="#000000" points="1763.031,-269.8135 1766.5309,-279.8135 1770.031,-269.8135 1763.031,-269.8135"/>
</g>
</g>
</svg>