<?xml version="1.0" encoding="UTF-8" standalone="no"?><!DOCTYPE svg PUBLIC "-//W3C//DTD SVG 1.1//EN" "http://www.w3.org/Graphics/SVG/1.1/DTD/svg11.dtd"><!-- Generated by graphviz version 2.40.1 (20161225.0304)
 --><!-- Title: classes Pages: 1 --><svg xmlns="http://www.w3.org/2000/svg" xmlns:xlink="http://www.w3.org/1999/xlink" width="2397pt" height="1023pt" viewBox="0.00 0.00 2397.50 1023.20">
<g id="graph0" class="graph" transform="scale(1 1) rotate(0) translate(4 1019.2)">
<title>classes</title>
<polygon fill="#ffffff" stroke="transparent" points="-4,4 -4,-1019.2 2393.4984,-1019.2 2393.4984,4 -4,4"/>
<!-- PythonSensorsSimulator.Model.AdapterMisurazione.AdapterMisurazione -->
<g id="node1" class="node">
<title>PythonSensorsSimulator.Model.AdapterMisurazione.AdapterMisurazione</title>
<polygon fill="none" stroke="#000000" points="929.9015,-799.9 929.9015,-874.3 1060.9633,-874.3 1060.9633,-799.9 929.9015,-799.9"/>
<text text-anchor="start" x="937.9015" y="-857.7" font-family="Times,serif" font-size="14.00" fill="#000000">AdapterMisurazione</text>
<polyline fill="none" stroke="#000000" points="929.9015,-849.5 1060.9633,-849.5 "/>
<polyline fill="none" stroke="#000000" points="929.9015,-824.7 1060.9633,-824.7 "/>
<text text-anchor="start" x="970.1589" y="-808.1" font-family="Times,serif" font-size="14.00" fill="#000000">to_json()</text>
</g>
<!-- PythonSensorsSimulator.Model.Writers.Writable.Writable -->
<g id="node25" class="node">
<title>PythonSensorsSimulator.Model.Writers.Writable.Writable</title>
<polygon fill="none" stroke="#000000" points="951.4657,-934.7 951.4657,-1009.1 1039.3991,-1009.1 1039.3991,-934.7 951.4657,-934.7"/>
<text text-anchor="start" x="970.9443" y="-992.5" font-family="Times,serif" font-size="14.00" fill="#000000">Writable</text>
<polyline fill="none" stroke="#000000" points="951.4657,-984.3 1039.3991,-984.3 "/>
<polyline fill="none" stroke="#000000" points="951.4657,-959.5 1039.3991,-959.5 "/>
<text text-anchor="start" x="959.4657" y="-943.9" font-family="Times,serif" font-style="italic" font-size="14.00" fill="#000000">to_json</text>
<text text-anchor="start" x="1000.6915" y="-943.9" font-family="Times,serif" font-size="14.00" fill="#000000">(): str</text>
</g>
<!-- PythonSensorsSimulator.Model.AdapterMisurazione.AdapterMisurazione&#45;&gt;PythonSensorsSimulator.Model.Writers.Writable.Writable -->
<g id="edge1" class="edge">
<title>PythonSensorsSimulator.Model.AdapterMisurazione.AdapterMisurazione-&gt;PythonSensorsSimulator.Model.Writers.Writable.Writable</title>
<path fill="none" stroke="#000000" d="M995.4324,-874.6493C995.4324,-889.9864 995.4324,-907.9078 995.4324,-924.1584"/>
<polygon fill="none" stroke="#000000" points="991.9325,-924.552 995.4324,-934.5521 998.9325,-924.5521 991.9325,-924.552"/>
</g>
<!-- PythonSensorsSimulator.Model.Simulators.ChargingStationSimulator.ChargingStationSimulator -->
<g id="node2" class="node">
<title>PythonSensorsSimulator.Model.Simulators.ChargingStationSimulator.ChargingStationSimulator</title>
<polygon fill="none" stroke="#000000" points="1553.9366,-383.9 1553.9366,-458.3 1716.9282,-458.3 1716.9282,-383.9 1553.9366,-383.9"/>
<text text-anchor="start" x="1561.9366" y="-441.7" font-family="Times,serif" font-size="14.00" fill="#000000">ChargingStationSimulator</text>
<polyline fill="none" stroke="#000000" points="1553.9366,-433.5 1716.9282,-433.5 "/>
<polyline fill="none" stroke="#000000" points="1553.9366,-408.7 1716.9282,-408.7 "/>
<text text-anchor="start" x="1633.6824" y="-392.1" font-family="Times,serif" font-size="14.00" fill="#000000"> </text>
</g>
<!-- PythonSensorsSimulator.Model.Simulators.Simulator.Simulator -->
<g id="node16" class="node">
<title>PythonSensorsSimulator.Model.Simulators.Simulator.Simulator</title>
<polygon fill="none" stroke="#000000" points="1433.1978,-604.5 1433.1978,-678.9 1543.667,-678.9 1543.667,-604.5 1433.1978,-604.5"/>
<text text-anchor="start" x="1460.8223" y="-662.3" font-family="Times,serif" font-size="14.00" fill="#000000">Simulator</text>
<polyline fill="none" stroke="#000000" points="1433.1978,-654.1 1543.667,-654.1 "/>
<polyline fill="none" stroke="#000000" points="1433.1978,-629.3 1543.667,-629.3 "/>
<text text-anchor="start" x="1441.1978" y="-612.7" font-family="Times,serif" font-size="14.00" fill="#000000">simulate(): None</text>
</g>
<!-- PythonSensorsSimulator.Model.Simulators.ChargingStationSimulator.ChargingStationSimulator&#45;&gt;PythonSensorsSimulator.Model.Simulators.Simulator.Simulator -->
<g id="edge4" class="edge">
<title>PythonSensorsSimulator.Model.Simulators.ChargingStationSimulator.ChargingStationSimulator-&gt;PythonSensorsSimulator.Model.Simulators.Simulator.Simulator</title>
<path fill="none" stroke="#000000" d="M1610.4959,-458.5218C1585.183,-496.5083 1545.9605,-555.3687 1518.8398,-596.0683"/>
<polygon fill="none" stroke="#000000" points="1515.8783,-594.2009 1513.2455,-604.4634 1521.7034,-598.0826 1515.8783,-594.2009"/>
</g>
<!-- PythonSensorsSimulator.Model.ComponentSimulatorThread.ComponentSimulatorThread -->
<g id="node3" class="node">
<title>PythonSensorsSimulator.Model.ComponentSimulatorThread.ComponentSimulatorThread</title>
<polygon fill="none" stroke="#000000" points="1655.3349,-929.1 1655.3349,-1014.7 1831.5299,-1014.7 1831.5299,-929.1 1655.3349,-929.1"/>
<text text-anchor="start" x="1663.3349" y="-998.1" font-family="Times,serif" font-size="14.00" fill="#000000">ComponentSimulatorThread</text>
<polyline fill="none" stroke="#000000" points="1655.3349,-989.9 1831.5299,-989.9 "/>
<polyline fill="none" stroke="#000000" points="1655.3349,-965.1 1831.5299,-965.1 "/>
<text text-anchor="start" x="1708.2483" y="-949.5" font-family="Times,serif" font-style="italic" font-size="14.00" fill="#000000">run</text>
<text text-anchor="start" x="1726.9089" y="-949.5" font-family="Times,serif" font-size="14.00" fill="#000000">(): None</text>
<text text-anchor="start" x="1708.2483" y="-935.5" font-family="Times,serif" font-style="italic" font-size="14.00" fill="#000000">stop</text>
<text text-anchor="start" x="1731.5835" y="-935.5" font-family="Times,serif" font-size="14.00" fill="#000000">(): None</text>
</g>
<!-- PythonSensorsSimulator.Model.Writers.CompositeWriter.CompositeWriter -->
<g id="node4" class="node">
<title>PythonSensorsSimulator.Model.Writers.CompositeWriter.CompositeWriter</title>
<polygon fill="none" stroke="#000000" points="665.777,-341.9 665.777,-500.3 955.0878,-500.3 955.0878,-341.9 665.777,-341.9"/>
<text text-anchor="start" x="761.8328" y="-483.7" font-family="Times,serif" font-size="14.00" fill="#000000">CompositeWriter</text>
<polyline fill="none" stroke="#000000" points="665.777,-475.5 955.0878,-475.5 "/>
<polyline fill="none" stroke="#000000" points="665.777,-450.7 955.0878,-450.7 "/>
<text text-anchor="start" x="673.777" y="-434.1" font-family="Times,serif" font-size="14.00" fill="#000000">add_kafkaConfluent_writer(topic: str, host, port)</text>
<text text-anchor="start" x="673.777" y="-417.3" font-family="Times,serif" font-size="14.00" fill="#000000">add_list_writer()</text>
<text text-anchor="start" x="673.777" y="-400.5" font-family="Times,serif" font-size="14.00" fill="#000000">add_stdOut_writer()</text>
<text text-anchor="start" x="673.777" y="-383.7" font-family="Times,serif" font-size="14.00" fill="#000000">add_writer(writer)</text>
<text text-anchor="start" x="673.777" y="-366.9" font-family="Times,serif" font-size="14.00" fill="#000000">remove_writer(writer)</text>
<text text-anchor="start" x="673.777" y="-350.1" font-family="Times,serif" font-size="14.00" fill="#000000">write(to_write)</text>
</g>
<!-- PythonSensorsSimulator.Model.Writers.Writer.Writer -->
<g id="node26" class="node">
<title>PythonSensorsSimulator.Model.Writers.Writer.Writer</title>
<polygon fill="none" stroke="#000000" points="453.0242,-604.5 453.0242,-678.9 647.8406,-678.9 647.8406,-604.5 453.0242,-604.5"/>
<text text-anchor="start" x="532.1666" y="-662.3" font-family="Times,serif" font-size="14.00" fill="#000000">Writer</text>
<polyline fill="none" stroke="#000000" points="453.0242,-654.1 647.8406,-654.1 "/>
<polyline fill="none" stroke="#000000" points="453.0242,-629.3 647.8406,-629.3 "/>
<text text-anchor="start" x="461.0242" y="-613.7" font-family="Times,serif" font-style="italic" font-size="14.00" fill="#000000">write</text>
<text text-anchor="start" x="489.7872" y="-613.7" font-family="Times,serif" font-size="14.00" fill="#000000">(to_write: Writable): None</text>
</g>
<!-- PythonSensorsSimulator.Model.Writers.CompositeWriter.CompositeWriter&#45;&gt;PythonSensorsSimulator.Model.Writers.Writer.Writer -->
<g id="edge12" class="edge">
<title>PythonSensorsSimulator.Model.Writers.CompositeWriter.CompositeWriter-&gt;PythonSensorsSimulator.Model.Writers.Writer.Writer</title>
<path fill="none" stroke="#000000" d="M716.9338,-500.43C678.252,-533.25 634.8783,-570.0509 602.0995,-597.8625"/>
<polygon fill="none" stroke="#000000" points="599.7889,-595.2328 594.4281,-604.3713 604.3177,-600.5705 599.7889,-595.2328"/>
</g>
<!-- PythonSensorsSimulator.Model.Simulators.Coordinate.Coordinate -->
<g id="node5" class="node">
<title>PythonSensorsSimulator.Model.Simulators.Coordinate.Coordinate</title>
<polygon fill="none" stroke="#000000" points="973.276,-375.5 973.276,-466.7 1075.5888,-466.7 1075.5888,-375.5 973.276,-375.5"/>
<text text-anchor="start" x="993.3286" y="-450.1" font-family="Times,serif" font-size="14.00" fill="#000000">Coordinate</text>
<polyline fill="none" stroke="#000000" points="973.276,-441.9 1075.5888,-441.9 "/>
<polyline fill="none" stroke="#000000" points="973.276,-417.1 1075.5888,-417.1 "/>
<text text-anchor="start" x="981.276" y="-400.5" font-family="Times,serif" font-size="14.00" fill="#000000">get_latitude()</text>
<text text-anchor="start" x="981.276" y="-383.7" font-family="Times,serif" font-size="14.00" fill="#000000">get_longitude()</text>
</g>
<!-- PythonSensorsSimulator.Model.Simulators.Misurazione.Misurazione -->
<g id="node14" class="node">
<title>PythonSensorsSimulator.Model.Simulators.Misurazione.Misurazione</title>
<polygon fill="none" stroke="#000000" points="938.8461,-554.1 938.8461,-729.3 1052.0187,-729.3 1052.0187,-554.1 938.8461,-554.1"/>
<text text-anchor="start" x="960.445" y="-712.7" font-family="Times,serif" font-size="14.00" fill="#000000">Misurazione</text>
<polyline fill="none" stroke="#000000" points="938.8461,-704.5 1052.0187,-704.5 "/>
<polyline fill="none" stroke="#000000" points="938.8461,-679.7 1052.0187,-679.7 "/>
<text text-anchor="start" x="946.8461" y="-663.1" font-family="Times,serif" font-size="14.00" fill="#000000">get_ID_sensore()</text>
<text text-anchor="start" x="946.8461" y="-646.3" font-family="Times,serif" font-size="14.00" fill="#000000">get_cella()</text>
<text text-anchor="start" x="946.8461" y="-629.5" font-family="Times,serif" font-size="14.00" fill="#000000">get_latitude()</text>
<text text-anchor="start" x="946.8461" y="-612.7" font-family="Times,serif" font-size="14.00" fill="#000000">get_longitude()</text>
<text text-anchor="start" x="946.8461" y="-595.9" font-family="Times,serif" font-size="14.00" fill="#000000">get_timestamp()</text>
<text text-anchor="start" x="946.8461" y="-579.1" font-family="Times,serif" font-size="14.00" fill="#000000">get_type()</text>
<text text-anchor="start" x="946.8461" y="-562.3" font-family="Times,serif" font-size="14.00" fill="#000000">get_value()</text>
</g>
<!-- PythonSensorsSimulator.Model.Simulators.Coordinate.Coordinate&#45;&gt;PythonSensorsSimulator.Model.Simulators.Misurazione.Misurazione -->
<g id="edge19" class="edge">
<title>PythonSensorsSimulator.Model.Simulators.Coordinate.Coordinate-&gt;PythonSensorsSimulator.Model.Simulators.Misurazione.Misurazione</title>
<path fill="none" stroke="#000000" d="M1008.8808,-466.7839C1004.0755,-483.0094 999.3939,-501.5327 996.9022,-518.8 995.8322,-526.215 995.0281,-533.9077 994.437,-541.6625"/>
<polygon fill="none" stroke="#000000" points="994.4228,-541.8921 998.0416,-548.1294 993.6759,-553.8688 990.0571,-547.6315 994.4228,-541.8921"/>
<text text-anchor="middle" x="1036.6975" y="-523" font-family="Times,serif" font-size="14.00" fill="#00ff00">__coordinates</text>
</g>
<!-- PythonSensorsSimulator.Model.Simulators.Coordinate.Coordinate&#45;&gt;PythonSensorsSimulator.Model.Simulators.Simulator.Simulator -->
<g id="edge18" class="edge">
<title>PythonSensorsSimulator.Model.Simulators.Coordinate.Coordinate-&gt;PythonSensorsSimulator.Model.Simulators.Simulator.Simulator</title>
<path fill="none" stroke="#000000" d="M1052.5574,-466.78C1061.8278,-479.0885 1072.9912,-491.5422 1085.4324,-500.8 1188.2602,-577.3171 1336.0605,-614.7527 1421.1525,-630.9909"/>
<polygon fill="#000000" stroke="#000000" points="1421.1874,-630.9973 1427.8171,-628.1605 1432.9856,-633.1892 1426.3559,-636.026 1421.1874,-630.9973"/>
<text text-anchor="middle" x="1170.9752" y="-523" font-family="Times,serif" font-size="14.00" fill="#00ff00">__coordinate</text>
</g>
<!-- PythonSensorsSimulator.Model.Simulators.DustPM10Simulator.DustPM10Simulator -->
<g id="node6" class="node">
<title>PythonSensorsSimulator.Model.Simulators.DustPM10Simulator.DustPM10Simulator</title>
<polygon fill="none" stroke="#000000" points="1734.4878,-383.9 1734.4878,-458.3 1866.377,-458.3 1866.377,-383.9 1734.4878,-383.9"/>
<text text-anchor="start" x="1742.4878" y="-441.7" font-family="Times,serif" font-size="14.00" fill="#000000">DustPM10Simulator</text>
<polyline fill="none" stroke="#000000" points="1734.4878,-433.5 1866.377,-433.5 "/>
<polyline fill="none" stroke="#000000" points="1734.4878,-408.7 1866.377,-408.7 "/>
<text text-anchor="start" x="1798.6824" y="-392.1" font-family="Times,serif" font-size="14.00" fill="#000000"> </text>
</g>
<!-- PythonSensorsSimulator.Model.Simulators.DustPM10Simulator.DustPM10Simulator&#45;&gt;PythonSensorsSimulator.Model.Simulators.Simulator.Simulator -->
<g id="edge5" class="edge">
<title>PythonSensorsSimulator.Model.Simulators.DustPM10Simulator.DustPM10Simulator-&gt;PythonSensorsSimulator.Model.Simulators.Simulator.Simulator</title>
<path fill="none" stroke="#000000" d="M1769.1762,-458.5457C1756.4075,-472.6657 1740.9941,-488.3166 1725.4324,-500.8 1671.2998,-544.2245 1602.4705,-583.6535 1552.9515,-609.6857"/>
<polygon fill="none" stroke="#000000" points="1551.1847,-606.6597 1543.9378,-614.3885 1554.4227,-612.8658 1551.1847,-606.6597"/>
</g>
<!-- PythonSensorsSimulator.Model.Simulators.EcologicalIslandSimulator.EcologicalIslandSimulator -->
<g id="node7" class="node">
<title>PythonSensorsSimulator.Model.Simulators.EcologicalIslandSimulator.EcologicalIslandSimulator</title>
<polygon fill="none" stroke="#000000" points="1884.783,-383.9 1884.783,-458.3 2050.0818,-458.3 2050.0818,-383.9 1884.783,-383.9"/>
<text text-anchor="start" x="1892.783" y="-441.7" font-family="Times,serif" font-size="14.00" fill="#000000">EcologicalIslandSimulator</text>
<polyline fill="none" stroke="#000000" points="1884.783,-433.5 2050.0818,-433.5 "/>
<polyline fill="none" stroke="#000000" points="1884.783,-408.7 2050.0818,-408.7 "/>
<text text-anchor="start" x="1965.6824" y="-392.1" font-family="Times,serif" font-size="14.00" fill="#000000"> </text>
</g>
<!-- PythonSensorsSimulator.Model.Simulators.EcologicalIslandSimulator.EcologicalIslandSimulator&#45;&gt;PythonSensorsSimulator.Model.Simulators.Simulator.Simulator -->
<g id="edge6" class="edge">
<title>PythonSensorsSimulator.Model.Simulators.EcologicalIslandSimulator.EcologicalIslandSimulator-&gt;PythonSensorsSimulator.Model.Simulators.Simulator.Simulator</title>
<path fill="none" stroke="#000000" d="M1930.4657,-458.6151C1914.5545,-473.24 1895.1064,-489.2323 1875.4324,-500.8 1770.218,-562.6625 1633.2506,-604.6721 1553.6554,-625.7994"/>
<polygon fill="none" stroke="#000000" points="1552.5482,-622.4714 1543.7644,-628.3955 1554.3254,-629.242 1552.5482,-622.4714"/>
</g>
<!-- PythonSensorsSimulator.Model.Simulators.ElectricalFaultSimulator.ElectricalFaultSimulator -->
<g id="node8" class="node">
<title>PythonSensorsSimulator.Model.Simulators.ElectricalFaultSimulator.ElectricalFaultSimulator</title>
<polygon fill="none" stroke="#000000" points="2067.6161,-383.9 2067.6161,-458.3 2221.2487,-458.3 2221.2487,-383.9 2067.6161,-383.9"/>
<text text-anchor="start" x="2075.6161" y="-441.7" font-family="Times,serif" font-size="14.00" fill="#000000">ElectricalFaultSimulator</text>
<polyline fill="none" stroke="#000000" points="2067.6161,-433.5 2221.2487,-433.5 "/>
<polyline fill="none" stroke="#000000" points="2067.6161,-408.7 2221.2487,-408.7 "/>
<text text-anchor="start" x="2142.6824" y="-392.1" font-family="Times,serif" font-size="14.00" fill="#000000"> </text>
</g>
<!-- PythonSensorsSimulator.Model.Simulators.ElectricalFaultSimulator.ElectricalFaultSimulator&#45;&gt;PythonSensorsSimulator.Model.Simulators.Simulator.Simulator -->
<g id="edge7" class="edge">
<title>PythonSensorsSimulator.Model.Simulators.ElectricalFaultSimulator.ElectricalFaultSimulator-&gt;PythonSensorsSimulator.Model.Simulators.Simulator.Simulator</title>
<path fill="none" stroke="#000000" d="M2112.5061,-458.5271C2097.765,-473.6752 2079.1641,-490.0825 2059.4324,-500.8 1891.507,-592.0107 1663.927,-625.1648 1553.6705,-636.4001"/>
<polygon fill="none" stroke="#000000" points="1553.2986,-632.9198 1543.6928,-637.3894 1553.9893,-639.8856 1553.2986,-632.9198"/>
</g>
<!-- PythonSensorsSimulator.Model.Simulators.HumiditySimulator.HumiditySimulator -->
<g id="node9" class="node">
<title>PythonSensorsSimulator.Model.Simulators.HumiditySimulator.HumiditySimulator</title>
<polygon fill="none" stroke="#000000" points="1093.9878,-383.9 1093.9878,-458.3 1218.877,-458.3 1218.877,-383.9 1093.9878,-383.9"/>
<text text-anchor="start" x="1101.9878" y="-441.7" font-family="Times,serif" font-size="14.00" fill="#000000">HumiditySimulator</text>
<polyline fill="none" stroke="#000000" points="1093.9878,-433.5 1218.877,-433.5 "/>
<polyline fill="none" stroke="#000000" points="1093.9878,-408.7 1218.877,-408.7 "/>
<text text-anchor="start" x="1154.6824" y="-392.1" font-family="Times,serif" font-size="14.00" fill="#000000"> </text>
</g>
<!-- PythonSensorsSimulator.Model.Simulators.HumiditySimulator.HumiditySimulator&#45;&gt;PythonSensorsSimulator.Model.Simulators.Simulator.Simulator -->
<g id="edge8" class="edge">
<title>PythonSensorsSimulator.Model.Simulators.HumiditySimulator.HumiditySimulator-&gt;PythonSensorsSimulator.Model.Simulators.Simulator.Simulator</title>
<path fill="none" stroke="#000000" d="M1185.6193,-458.5386C1197.8804,-472.8178 1212.8951,-488.5821 1228.4324,-500.8 1289.3781,-548.7251 1368.8949,-589.1387 1423.8649,-614.2258"/>
<polygon fill="none" stroke="#000000" points="1422.5964,-617.4934 1433.1503,-618.4244 1425.4805,-611.1151 1422.5964,-617.4934"/>
</g>
<!-- PythonSensorsSimulator.Model.Writers.kafkaAdapter.KafkaConfluentAdapter.KafkaConfluentAdapter -->
<g id="node10" class="node">
<title>PythonSensorsSimulator.Model.Writers.kafkaAdapter.KafkaConfluentAdapter.KafkaConfluentAdapter</title>
<polygon fill="none" stroke="#000000" points="28.1911,-50.9 28.1911,-125.3 220.6737,-125.3 220.6737,-50.9 28.1911,-50.9"/>
<text text-anchor="start" x="56.7942" y="-108.7" font-family="Times,serif" font-size="14.00" fill="#000000">KafkaConfluentAdapter</text>
<polyline fill="none" stroke="#000000" points="28.1911,-100.5 220.6737,-100.5 "/>
<polyline fill="none" stroke="#000000" points="28.1911,-75.7 220.6737,-75.7 "/>
<text text-anchor="start" x="36.1911" y="-59.1" font-family="Times,serif" font-size="14.00" fill="#000000">write_to_kafka(data: str): None</text>
</g>
<!-- PythonSensorsSimulator.Model.Writers.kafkaAdapter.KafkaTarget.KafkaTarget -->
<g id="node11" class="node">
<title>PythonSensorsSimulator.Model.Writers.kafkaAdapter.KafkaTarget.KafkaTarget</title>
<polygon fill="none" stroke="#000000" points="0,-213.7 0,-288.1 248.8648,-288.1 248.8648,-213.7 0,-213.7"/>
<text text-anchor="start" x="89.0677" y="-271.5" font-family="Times,serif" font-size="14.00" fill="#000000">KafkaTarget</text>
<polyline fill="none" stroke="#000000" points="0,-263.3 248.8648,-263.3 "/>
<polyline fill="none" stroke="#000000" points="0,-238.5 248.8648,-238.5 "/>
<text text-anchor="start" x="8" y="-222.9" font-family="Times,serif" font-style="italic" font-size="14.00" fill="#000000">write_to_kafka</text>
<text text-anchor="start" x="92.7434" y="-222.9" font-family="Times,serif" font-size="14.00" fill="#000000">(topic: str, data: str): None</text>
</g>
<!-- PythonSensorsSimulator.Model.Writers.kafkaAdapter.KafkaConfluentAdapter.KafkaConfluentAdapter&#45;&gt;PythonSensorsSimulator.Model.Writers.kafkaAdapter.KafkaTarget.KafkaTarget -->
<g id="edge16" class="edge">
<title>PythonSensorsSimulator.Model.Writers.kafkaAdapter.KafkaConfluentAdapter.KafkaConfluentAdapter-&gt;PythonSensorsSimulator.Model.Writers.kafkaAdapter.KafkaTarget.KafkaTarget</title>
<path fill="none" stroke="#000000" d="M124.4324,-125.4496C124.4324,-148.5312 124.4324,-178.3749 124.4324,-203.1631"/>
<polygon fill="none" stroke="#000000" points="120.9325,-203.4426 124.4324,-213.4426 127.9325,-203.4427 120.9325,-203.4426"/>
</g>
<!-- PythonSensorsSimulator.Model.Writers.KafkaWriter.KafkaWriter -->
<g id="node12" class="node">
<title>PythonSensorsSimulator.Model.Writers.KafkaWriter.KafkaWriter</title>
<polygon fill="none" stroke="#000000" points="27.0242,-383.9 27.0242,-458.3 221.8406,-458.3 221.8406,-383.9 27.0242,-383.9"/>
<text text-anchor="start" x="89.0684" y="-441.7" font-family="Times,serif" font-size="14.00" fill="#000000">KafkaWriter</text>
<polyline fill="none" stroke="#000000" points="27.0242,-433.5 221.8406,-433.5 "/>
<polyline fill="none" stroke="#000000" points="27.0242,-408.7 221.8406,-408.7 "/>
<text text-anchor="start" x="35.0242" y="-392.1" font-family="Times,serif" font-size="14.00" fill="#000000">write(to_write: Writable): None</text>
</g>
<!-- PythonSensorsSimulator.Model.Writers.kafkaAdapter.KafkaTarget.KafkaTarget&#45;&gt;PythonSensorsSimulator.Model.Writers.KafkaWriter.KafkaWriter -->
<g id="edge24" class="edge">
<title>PythonSensorsSimulator.Model.Writers.kafkaAdapter.KafkaTarget.KafkaTarget-&gt;PythonSensorsSimulator.Model.Writers.KafkaWriter.KafkaWriter</title>
<path fill="none" stroke="#000000" d="M124.4324,-288.2511C124.4324,-312.749 124.4324,-345.0523 124.4324,-371.6706"/>
<polygon fill="none" stroke="#000000" points="124.4325,-371.836 128.4324,-377.8361 124.4324,-383.836 120.4324,-377.836 124.4325,-371.836"/>
<text text-anchor="middle" x="166.4128" y="-310.8" font-family="Times,serif" font-size="14.00" fill="#00ff00">__kafka_target</text>
</g>
<!-- PythonSensorsSimulator.Model.Writers.KafkaWriter.KafkaWriter&#45;&gt;PythonSensorsSimulator.Model.Writers.Writer.Writer -->
<g id="edge13" class="edge">
<title>PythonSensorsSimulator.Model.Writers.KafkaWriter.KafkaWriter-&gt;PythonSensorsSimulator.Model.Writers.Writer.Writer</title>
<path fill="none" stroke="#000000" d="M169.7454,-458.3805C188.2337,-472.6379 210.2238,-488.4286 231.4324,-500.8 299.0831,-540.2619 379.8175,-575.82 443.1392,-601.3434"/>
<polygon fill="none" stroke="#000000" points="442.1648,-604.7234 452.7492,-605.1939 444.7684,-598.2256 442.1648,-604.7234"/>
</g>
<!-- PythonSensorsSimulator.Model.Writers.ListWriter.ListWriter -->
<g id="node13" class="node">
<title>PythonSensorsSimulator.Model.Writers.ListWriter.ListWriter</title>
<polygon fill="none" stroke="#000000" points="240.0242,-375.5 240.0242,-466.7 434.8406,-466.7 434.8406,-375.5 240.0242,-375.5"/>
<text text-anchor="start" x="308.2774" y="-450.1" font-family="Times,serif" font-size="14.00" fill="#000000">ListWriter</text>
<polyline fill="none" stroke="#000000" points="240.0242,-441.9 434.8406,-441.9 "/>
<polyline fill="none" stroke="#000000" points="240.0242,-417.1 434.8406,-417.1 "/>
<text text-anchor="start" x="248.0242" y="-400.5" font-family="Times,serif" font-size="14.00" fill="#000000">get_data_list(): list</text>
<text text-anchor="start" x="248.0242" y="-383.7" font-family="Times,serif" font-size="14.00" fill="#000000">write(to_write: Writable): None</text>
</g>
<!-- PythonSensorsSimulator.Model.Writers.ListWriter.ListWriter&#45;&gt;PythonSensorsSimulator.Model.Writers.Writer.Writer -->
<g id="edge14" class="edge">
<title>PythonSensorsSimulator.Model.Writers.ListWriter.ListWriter-&gt;PythonSensorsSimulator.Model.Writers.Writer.Writer</title>
<path fill="none" stroke="#000000" d="M381.5661,-466.8085C418.4649,-505.0238 470.7853,-559.2111 507.3789,-597.1103"/>
<polygon fill="none" stroke="#000000" points="505.0147,-599.7006 514.4787,-604.4634 510.0505,-594.8384 505.0147,-599.7006"/>
</g>
<!-- PythonSensorsSimulator.Model.Simulators.Misurazione.Misurazione&#45;&gt;PythonSensorsSimulator.Model.AdapterMisurazione.AdapterMisurazione -->
<g id="edge20" class="edge">
<title>PythonSensorsSimulator.Model.Simulators.Misurazione.Misurazione-&gt;PythonSensorsSimulator.Model.AdapterMisurazione.AdapterMisurazione</title>
<path fill="none" stroke="#000000" d="M995.4324,-729.3975C995.4324,-749.4145 995.4324,-769.9974 995.4324,-787.7378"/>
<polygon fill="none" stroke="#000000" points="995.4325,-787.813 999.4324,-793.813 995.4324,-799.813 991.4324,-793.8129 995.4325,-787.813"/>
<text text-anchor="middle" x="1036.6428" y="-752" font-family="Times,serif" font-size="14.00" fill="#00ff00">__misurazione</text>
</g>
<!-- PythonSensorsSimulator.Model.Simulators.SensorFactory.SensorFactory -->
<g id="node15" class="node">
<title>PythonSensorsSimulator.Model.Simulators.SensorFactory.SensorFactory</title>
<polygon fill="none" stroke="#000000" points="238.8295,-.5 238.8295,-175.7 808.0353,-175.7 808.0353,-.5 238.8295,-.5"/>
<text text-anchor="start" x="482.9997" y="-159.1" font-family="Times,serif" font-size="14.00" fill="#000000">SensorFactory</text>
<polyline fill="none" stroke="#000000" points="238.8295,-150.9 808.0353,-150.9 "/>
<polyline fill="none" stroke="#000000" points="238.8295,-126.1 808.0353,-126.1 "/>
<text text-anchor="start" x="246.8295" y="-109.5" font-family="Times,serif" font-size="14.00" fill="#000000">create_charging_station_sensor(latitude: float, longitude: float, cella: str, probabilita_occupazione)</text>
<text text-anchor="start" x="246.8295" y="-92.7" font-family="Times,serif" font-size="14.00" fill="#000000">create_dust_PM10_sensor(latitude: float, longitude: float, cella: str, initial_value)</text>
<text text-anchor="start" x="246.8295" y="-75.9" font-family="Times,serif" font-size="14.00" fill="#000000">create_ecological_island_sensor(latitude: float, longitude: float, cella: str, initial_value)</text>
<text text-anchor="start" x="246.8295" y="-59.1" font-family="Times,serif" font-size="14.00" fill="#000000">create_eletrical_fault_sensor(latitude: float, longitude: float, cella: str, fault_probability)</text>
<text text-anchor="start" x="246.8295" y="-42.3" font-family="Times,serif" font-size="14.00" fill="#000000">create_humidity_sensor(latitude: float, longitude: float, cella: str, initial_value)</text>
<text text-anchor="start" x="246.8295" y="-25.5" font-family="Times,serif" font-size="14.00" fill="#000000">create_temperature_sensor(latitude: float, longitude: float, cella: str, initial_value)</text>
<text text-anchor="start" x="246.8295" y="-8.7" font-family="Times,serif" font-size="14.00" fill="#000000">create_water_presence_sensor(latitude: float, longitude: float, cella: str, soglia_rilevamento)</text>
</g>
<!-- PythonSensorsSimulator.Model.SimulatorThread.SimulatorThread -->
<g id="node18" class="node">
<title>PythonSensorsSimulator.Model.SimulatorThread.SimulatorThread</title>
<polygon fill="none" stroke="#000000" points="1433.0011,-791.5 1433.0011,-882.7 1543.8637,-882.7 1543.8637,-791.5 1433.0011,-791.5"/>
<text text-anchor="start" x="1441.0011" y="-866.1" font-family="Times,serif" font-size="14.00" fill="#000000">SimulatorThread</text>
<polyline fill="none" stroke="#000000" points="1433.0011,-857.9 1543.8637,-857.9 "/>
<polyline fill="none" stroke="#000000" points="1433.0011,-833.1 1543.8637,-833.1 "/>
<text text-anchor="start" x="1453.2483" y="-816.5" font-family="Times,serif" font-size="14.00" fill="#000000">run(): None</text>
<text text-anchor="start" x="1453.2483" y="-799.7" font-family="Times,serif" font-size="14.00" fill="#000000">stop(): None</text>
</g>
<!-- PythonSensorsSimulator.Model.Simulators.Simulator.Simulator&#45;&gt;PythonSensorsSimulator.Model.SimulatorThread.SimulatorThread -->
<g id="edge21" class="edge">
<title>PythonSensorsSimulator.Model.Simulators.Simulator.Simulator-&gt;PythonSensorsSimulator.Model.SimulatorThread.SimulatorThread</title>
<path fill="none" stroke="#000000" d="M1488.4324,-678.9132C1488.4324,-707.2889 1488.4324,-746.8875 1488.4324,-779.3662"/>
<polygon fill="none" stroke="#000000" points="1488.4325,-779.4271 1492.4324,-785.4271 1488.4324,-791.4271 1484.4324,-785.4271 1488.4325,-779.4271"/>
<text text-anchor="middle" x="1521.8735" y="-752" font-family="Times,serif" font-size="14.00" fill="#00ff00">__simulator</text>
</g>
<!-- PythonSensorsSimulator.Model.SimulatorExecutorFactory.SimulatorExecutorFactory -->
<g id="node17" class="node">
<title>PythonSensorsSimulator.Model.SimulatorExecutorFactory.SimulatorExecutorFactory</title>
<polygon fill="none" stroke="#000000" points="1649.0658,-783.1 1649.0658,-891.1 2345.799,-891.1 2345.799,-783.1 1649.0658,-783.1"/>
<text text-anchor="start" x="1923.1743" y="-874.5" font-family="Times,serif" font-size="14.00" fill="#000000">SimulatorExecutorFactory</text>
<polyline fill="none" stroke="#000000" points="1649.0658,-866.3 2345.799,-866.3 "/>
<polyline fill="none" stroke="#000000" points="1649.0658,-841.5 2345.799,-841.5 "/>
<text text-anchor="start" x="1657.0658" y="-824.9" font-family="Times,serif" font-size="14.00" fill="#000000">add_simulator(simulator: Simulator, writers: Writer, frequency: float, data_to_generate: int): 'SimulatorExecutorFactory'</text>
<text text-anchor="start" x="1657.0658" y="-808.1" font-family="Times,serif" font-size="14.00" fill="#000000">run()</text>
<text text-anchor="start" x="1657.0658" y="-791.3" font-family="Times,serif" font-size="14.00" fill="#000000">stop()</text>
</g>
<!-- PythonSensorsSimulator.Model.SimulatorExecutorFactory.SimulatorExecutorFactory&#45;&gt;PythonSensorsSimulator.Model.ComponentSimulatorThread.ComponentSimulatorThread -->
<g id="edge2" class="edge">
<title>PythonSensorsSimulator.Model.SimulatorExecutorFactory.SimulatorExecutorFactory-&gt;PythonSensorsSimulator.Model.ComponentSimulatorThread.ComponentSimulatorThread</title>
<path fill="none" stroke="#000000" d="M1895.5844,-891.1516C1874.9056,-902.126 1853.3,-913.5923 1833.0808,-924.3228"/>
<polygon fill="none" stroke="#000000" points="1831.3955,-921.2548 1824.2031,-929.0343 1834.6771,-927.438 1831.3955,-921.2548"/>
</g>
<!-- PythonSensorsSimulator.Model.SimulatorThread.SimulatorThread&#45;&gt;PythonSensorsSimulator.Model.ComponentSimulatorThread.ComponentSimulatorThread -->
<g id="edge3" class="edge">
<title>PythonSensorsSimulator.Model.SimulatorThread.SimulatorThread-&gt;PythonSensorsSimulator.Model.ComponentSimulatorThread.ComponentSimulatorThread</title>
<path fill="none" stroke="#000000" d="M1544.0781,-866.5159C1575.9608,-883.3699 1616.7438,-904.929 1653.1064,-924.1512"/>
<polygon fill="none" stroke="#000000" points="1651.7713,-927.4043 1662.2478,-928.9836 1655.0427,-921.2158 1651.7713,-927.4043"/>
</g>
<!-- PythonSensorsSimulator.Model.SimulatorThreadPool.SimulatorThreadPool -->
<g id="node19" class="node">
<title>PythonSensorsSimulator.Model.SimulatorThreadPool.SimulatorThreadPool</title>
<polygon fill="none" stroke="#000000" points="2127.175,-587.7 2127.175,-695.7 2305.6898,-695.7 2305.6898,-587.7 2127.175,-587.7"/>
<text text-anchor="start" x="2156.1645" y="-679.1" font-family="Times,serif" font-size="14.00" fill="#000000">SimulatorThreadPool</text>
<polyline fill="none" stroke="#000000" points="2127.175,-670.9 2305.6898,-670.9 "/>
<polyline fill="none" stroke="#000000" points="2127.175,-646.1 2305.6898,-646.1 "/>
<text text-anchor="start" x="2135.175" y="-629.5" font-family="Times,serif" font-size="14.00" fill="#000000">append_simulator(simulator)</text>
<text text-anchor="start" x="2135.175" y="-612.7" font-family="Times,serif" font-size="14.00" fill="#000000">run_all()</text>
<text text-anchor="start" x="2135.175" y="-595.9" font-family="Times,serif" font-size="14.00" fill="#000000">stop_all()</text>
</g>
<!-- PythonSensorsSimulator.Model.SimulatorThreadPool.SimulatorThreadPool&#45;&gt;PythonSensorsSimulator.Model.SimulatorExecutorFactory.SimulatorExecutorFactory -->
<g id="edge17" class="edge">
<title>PythonSensorsSimulator.Model.SimulatorThreadPool.SimulatorThreadPool-&gt;PythonSensorsSimulator.Model.SimulatorExecutorFactory.SimulatorExecutorFactory</title>
<path fill="none" stroke="#000000" d="M2155.7195,-695.8703C2128.3058,-720.3299 2095.764,-749.3649 2067.3367,-774.7287"/>
<polygon fill="#000000" stroke="#000000" points="2067.2174,-774.8352 2065.4034,-781.8144 2058.2634,-782.8243 2060.0774,-775.8451 2067.2174,-774.8352"/>
<text text-anchor="middle" x="2154.471" y="-752" font-family="Times,serif" font-size="14.00" fill="#00ff00">__simulator_executor</text>
</g>
<!-- PythonSensorsSimulator.Model.Writers.StdoutWriter.StdoutWriter -->
<g id="node20" class="node">
<title>PythonSensorsSimulator.Model.Writers.StdoutWriter.StdoutWriter</title>
<polygon fill="none" stroke="#000000" points="453.0242,-383.9 453.0242,-458.3 647.8406,-458.3 647.8406,-383.9 453.0242,-383.9"/>
<text text-anchor="start" x="513.8847" y="-441.7" font-family="Times,serif" font-size="14.00" fill="#000000">StdoutWriter</text>
<polyline fill="none" stroke="#000000" points="453.0242,-433.5 647.8406,-433.5 "/>
<polyline fill="none" stroke="#000000" points="453.0242,-408.7 647.8406,-408.7 "/>
<text text-anchor="start" x="461.0242" y="-392.1" font-family="Times,serif" font-size="14.00" fill="#000000">write(to_write: Writable): None</text>
</g>
<!-- PythonSensorsSimulator.Model.Writers.StdoutWriter.StdoutWriter&#45;&gt;PythonSensorsSimulator.Model.Writers.Writer.Writer -->
<g id="edge15" class="edge">
<title>PythonSensorsSimulator.Model.Writers.StdoutWriter.StdoutWriter-&gt;PythonSensorsSimulator.Model.Writers.Writer.Writer</title>
<path fill="none" stroke="#000000" d="M550.4324,-458.5218C550.4324,-495.9521 550.4324,-553.6492 550.4324,-594.2686"/>
<polygon fill="none" stroke="#000000" points="546.9325,-594.4634 550.4324,-604.4634 553.9325,-594.4635 546.9325,-594.4634"/>
</g>
<!-- PythonSensorsSimulator.Model.Simulators.TemperatureSimulator.TemperatureSimulator -->
<g id="node21" class="node">
<title>PythonSensorsSimulator.Model.Simulators.TemperatureSimulator.TemperatureSimulator</title>
<polygon fill="none" stroke="#000000" points="1237.0656,-383.9 1237.0656,-458.3 1379.7992,-458.3 1379.7992,-383.9 1237.0656,-383.9"/>
<text text-anchor="start" x="1245.0656" y="-441.7" font-family="Times,serif" font-size="14.00" fill="#000000">TemperatureSimulator</text>
<polyline fill="none" stroke="#000000" points="1237.0656,-433.5 1379.7992,-433.5 "/>
<polyline fill="none" stroke="#000000" points="1237.0656,-408.7 1379.7992,-408.7 "/>
<text text-anchor="start" x="1306.6824" y="-392.1" font-family="Times,serif" font-size="14.00" fill="#000000"> </text>
</g>
<!-- PythonSensorsSimulator.Model.Simulators.TemperatureSimulator.TemperatureSimulator&#45;&gt;PythonSensorsSimulator.Model.Simulators.Simulator.Simulator -->
<g id="edge9" class="edge">
<title>PythonSensorsSimulator.Model.Simulators.TemperatureSimulator.TemperatureSimulator-&gt;PythonSensorsSimulator.Model.Simulators.Simulator.Simulator</title>
<path fill="none" stroke="#000000" d="M1338.9669,-458.5218C1370.092,-496.6673 1418.392,-555.8616 1451.615,-596.5782"/>
<polygon fill="none" stroke="#000000" points="1449.0151,-598.9281 1458.049,-604.4634 1454.4387,-594.5026 1449.0151,-598.9281"/>
</g>
<!-- PythonSensorsSimulator.Model.ThreadPoolAdapter.ThreadPoolExecutorAdapter.ThreadPoolExecutorAdapter -->
<g id="node22" class="node">
<title>PythonSensorsSimulator.Model.ThreadPoolAdapter.ThreadPoolExecutorAdapter.ThreadPoolExecutorAdapter</title>
<polygon fill="none" stroke="#000000" points="2211.9646,-213.7 2211.9646,-288.1 2388.9002,-288.1 2388.9002,-213.7 2211.9646,-213.7"/>
<text text-anchor="start" x="2219.9646" y="-271.5" font-family="Times,serif" font-size="14.00" fill="#000000">ThreadPoolExecutorAdapter</text>
<polyline fill="none" stroke="#000000" points="2211.9646,-263.3 2388.9002,-263.3 "/>
<polyline fill="none" stroke="#000000" points="2211.9646,-238.5 2388.9002,-238.5 "/>
<text text-anchor="start" x="2246.7935" y="-221.9" font-family="Times,serif" font-size="14.00" fill="#000000">map(func, iterable)</text>
</g>
<!-- PythonSensorsSimulator.Model.ThreadPoolAdapter.ThreadPoolTarget.ThreadPoolTarget -->
<g id="node23" class="node">
<title>PythonSensorsSimulator.Model.ThreadPoolAdapter.ThreadPoolTarget.ThreadPoolTarget</title>
<polygon fill="none" stroke="#000000" points="2238.7935,-383.9 2238.7935,-458.3 2362.0713,-458.3 2362.0713,-383.9 2238.7935,-383.9"/>
<text text-anchor="start" x="2249.5081" y="-441.7" font-family="Times,serif" font-size="14.00" fill="#000000">ThreadPoolTarget</text>
<polyline fill="none" stroke="#000000" points="2238.7935,-433.5 2362.0713,-433.5 "/>
<polyline fill="none" stroke="#000000" points="2238.7935,-408.7 2362.0713,-408.7 "/>
<text text-anchor="start" x="2246.7935" y="-393.1" font-family="Times,serif" font-style="italic" font-size="14.00" fill="#000000">map</text>
<text text-anchor="start" x="2270.8987" y="-393.1" font-family="Times,serif" font-size="14.00" fill="#000000">(func, iterable)</text>
</g>
<!-- PythonSensorsSimulator.Model.ThreadPoolAdapter.ThreadPoolExecutorAdapter.ThreadPoolExecutorAdapter&#45;&gt;PythonSensorsSimulator.Model.ThreadPoolAdapter.ThreadPoolTarget.ThreadPoolTarget -->
<g id="edge11" class="edge">
<title>PythonSensorsSimulator.Model.ThreadPoolAdapter.ThreadPoolExecutorAdapter.ThreadPoolExecutorAdapter-&gt;PythonSensorsSimulator.Model.ThreadPoolAdapter.ThreadPoolTarget.ThreadPoolTarget</title>
<path fill="none" stroke="#000000" d="M2300.4324,-288.2511C2300.4324,-313.4141 2300.4324,-346.8121 2300.4324,-373.8258"/>
<polygon fill="none" stroke="#000000" points="2296.9325,-373.836 2300.4324,-383.836 2303.9325,-373.8361 2296.9325,-373.836"/>
</g>
<!-- PythonSensorsSimulator.Model.ThreadPoolAdapter.ThreadPoolTarget.ThreadPoolTarget&#45;&gt;PythonSensorsSimulator.Model.SimulatorThreadPool.SimulatorThreadPool -->
<g id="edge22" class="edge">
<title>PythonSensorsSimulator.Model.ThreadPoolAdapter.ThreadPoolTarget.ThreadPoolTarget-&gt;PythonSensorsSimulator.Model.SimulatorThreadPool.SimulatorThreadPool</title>
<path fill="none" stroke="#000000" d="M2286.1829,-458.5218C2273.9661,-490.6055 2256.0793,-537.5797 2241.4779,-575.9258"/>
<polygon fill="none" stroke="#000000" points="2241.3321,-576.3088 2242.9351,-583.3395 2237.0618,-587.5233 2235.4588,-580.4926 2241.3321,-576.3088"/>
<text text-anchor="middle" x="2324.9654" y="-523" font-family="Times,serif" font-size="14.00" fill="#00ff00">__thread_pool_adapter</text>
</g>
<!-- PythonSensorsSimulator.Model.Simulators.WaterPresenceSensor.WaterPresenceSensor -->
<g id="node24" class="node">
<title>PythonSensorsSimulator.Model.Simulators.WaterPresenceSensor.WaterPresenceSensor</title>
<polygon fill="none" stroke="#000000" points="1397.4106,-383.9 1397.4106,-458.3 1535.4542,-458.3 1535.4542,-383.9 1397.4106,-383.9"/>
<text text-anchor="start" x="1405.4106" y="-441.7" font-family="Times,serif" font-size="14.00" fill="#000000">WaterPresenceSensor</text>
<polyline fill="none" stroke="#000000" points="1397.4106,-433.5 1535.4542,-433.5 "/>
<polyline fill="none" stroke="#000000" points="1397.4106,-408.7 1535.4542,-408.7 "/>
<text text-anchor="start" x="1464.6824" y="-392.1" font-family="Times,serif" font-size="14.00" fill="#000000"> </text>
</g>
<!-- PythonSensorsSimulator.Model.Simulators.WaterPresenceSensor.WaterPresenceSensor&#45;&gt;PythonSensorsSimulator.Model.Simulators.Simulator.Simulator -->
<g id="edge10" class="edge">
<title>PythonSensorsSimulator.Model.Simulators.WaterPresenceSensor.WaterPresenceSensor-&gt;PythonSensorsSimulator.Model.Simulators.Simulator.Simulator</title>
<path fill="none" stroke="#000000" d="M1470.1644,-458.5218C1473.8972,-495.9521 1479.6513,-553.6492 1483.7022,-594.2686"/>
<polygon fill="none" stroke="#000000" points="1480.2437,-594.8601 1484.7189,-604.4634 1487.2091,-594.1654 1480.2437,-594.8601"/>
</g>
<!-- PythonSensorsSimulator.Model.Writers.Writer.Writer&#45;&gt;PythonSensorsSimulator.Model.SimulatorThread.SimulatorThread -->
<g id="edge23" class="edge">
<title>PythonSensorsSimulator.Model.Writers.Writer.Writer-&gt;PythonSensorsSimulator.Model.SimulatorThread.SimulatorThread</title>
<path fill="none" stroke="#000000" d="M647.9825,-667.5087C724.1705,-686.903 832.9451,-712.9257 929.4324,-729.8 996.4429,-741.5192 1014.3504,-736.4968 1081.4324,-747.8 1201.8694,-768.0934 1340.4718,-800.4603 1420.8958,-820.1491"/>
<polygon fill="none" stroke="#000000" points="1421.158,-820.2134 1427.9393,-817.7612 1432.8112,-823.0777 1426.0299,-825.53 1421.158,-820.2134"/>
<text text-anchor="middle" x="1197.8665" y="-752" font-family="Times,serif" font-size="14.00" fill="#00ff00">__writers</text>
</g>
</g>
</svg>